<svg width="120" height="42" viewBox="0 0 120 42" fill="none" xmlns="http://www.w3.org/2000/svg">
<g clip-path="url(#clip0_2102_1397)">
<path fill-rule="evenodd" clip-rule="evenodd" d="M42.1687 21.9993C41.9877 30.56 29.7641 30.5428 29.584 21.9996C29.7654 13.4398 41.989 13.458 42.1687 21.9993ZM24.743 21.9565C24.993 6.76112 46.762 6.74595 47.0097 21.9569L47.0104 21.9996L47.0097 22.0424C46.7604 37.2381 24.9913 37.2554 24.743 22.0422L24.7423 21.9993L24.743 21.9565Z" fill="#1C1C1B"/>
<path d="M120 32.5977C119.801 44.4688 102.466 44.4662 102.268 32.5977C102.467 20.7265 119.803 20.7302 120 32.5977Z" fill="#FF0000"/>
<path fill-rule="evenodd" clip-rule="evenodd" d="M17.4264 21.9993C17.2454 30.56 5.02181 30.5428 4.84167 21.9996C5.02313 13.4398 17.2467 13.458 17.4264 21.9993ZM0.00070495 21.9565C0.250651 6.76112 22.0197 6.74595 22.2673 21.9569L22.268 21.9996L22.2673 22.0424C22.0181 37.2381 0.248969 37.2554 0.000699294 22.0422L0 21.9993L0.00070495 21.9565Z" fill="#1C1C1B"/>
<path fill-rule="evenodd" clip-rule="evenodd" d="M71.5462 10.5543L71.6312 10.5573C74.7936 10.6696 77.3011 11.6541 79.1443 13.4577C80.9476 15.2222 81.8627 17.5256 82.3403 19.7986C82.8168 22.0664 82.899 24.5057 82.8852 26.7467C82.8786 27.8222 82.853 28.7877 82.8289 29.6974C82.7987 30.8341 82.7709 31.8837 82.7853 32.952L77.899 33.0214C77.8843 31.935 77.9164 30.6418 77.9481 29.3627C77.9709 28.4458 77.9934 27.5362 77.9985 26.715C78.0117 24.5697 77.9242 22.5734 77.5632 20.8552C77.2033 19.1423 76.613 17.9092 75.7717 17.086C74.9805 16.3119 73.7265 15.6641 71.5472 15.5715C69.3665 15.665 68.1118 16.3129 67.3205 17.0866C66.4793 17.9091 65.8892 19.1408 65.5294 20.8523C65.1685 22.5692 65.0811 24.5645 65.0943 26.7103C65.0993 27.5307 65.1218 28.439 65.1445 29.3548C65.1762 30.6359 65.2083 31.9316 65.1934 33.0217L60.3071 32.9517C60.3217 31.8808 60.2938 30.8285 60.2637 29.6893C60.2397 28.78 60.2142 27.8155 60.2076 26.7419C60.1938 24.5008 60.2759 22.0621 60.7525 19.7952C61.2301 17.5228 62.1454 15.2207 63.949 13.4571C65.7922 11.6548 68.2994 10.6708 71.4613 10.5574L71.5462 10.5543Z" fill="#1C1C1B"/>
<path fill-rule="evenodd" clip-rule="evenodd" d="M0 39.8043V22H4.94845V39.8043H0Z" fill="#1C1C1B"/>
<path fill-rule="evenodd" clip-rule="evenodd" d="M50.7217 33.001L50.8059 11.4021L55.6701 11.4228L55.5859 33.0217L50.7217 33.001Z" fill="#1C1C1B"/>
<path fill-rule="evenodd" clip-rule="evenodd" d="M88.2474 8.45218L93.0349 8.43481L93.0953 26.778C93.1306 27.3726 93.265 27.6475 93.342 27.7655C93.4172 27.8805 93.5393 28.0028 93.8034 28.1197C94.4528 28.4071 95.5149 28.4798 97.0098 28.3781L97.3196 33.39C95.7964 33.4936 93.7224 33.5348 91.9426 32.7471C90.992 32.3264 90.0762 31.6503 89.3933 30.6052C88.7145 29.5664 88.3761 28.3321 88.3111 26.9786L88.3083 26.9198L88.2474 8.45218Z" fill="#1C1C1B"/>
<path fill-rule="evenodd" clip-rule="evenodd" d="M98.9691 15.1768L86.7044 19.8804L84.9485 15.258L97.2132 10.5543L98.9691 15.1768Z" fill="#1C1C1B"/>
<path d="M57 3.9993C56.9104 9.33357 49.0896 9.33357 49 3.9993C49.0904 -1.33347 56.9111 -1.33272 57 3.9993Z" fill="#1C1C1B"/>
</g>
<defs>
<clipPath id="clip0_2102_1397">
<rect width="120" height="42" fill="white"/>
</clipPath>
</defs>
</svg>
